<?xml version="1.0" encoding="utf-8"?>
<!-- Generator: Adobe Illustrator 21.0.0, SVG Export Plug-In . SVG Version: 6.00 Build 0)  -->
<svg version="1.1" id="图层_1" xmlns="http://www.w3.org/2000/svg" xmlns:xlink="http://www.w3.org/1999/xlink" x="0px" y="0px"
	 viewBox="0 0 248.6 76.4" style="enable-background:new 0 0 248.6 76.4;" xml:space="preserve">
<style type="text/css">
	.st0{fill:#FFFFFF;}
</style>
<g>
	<g>
		<path class="st0" d="M38.5,2.9C18.9,2.9,3,18.8,3,38.4s15.9,35.5,35.5,35.5S74,58,74,38.4S58.1,2.9,38.5,2.9z M54.6,14.5
			c5.7,0,10.3,4.6,10.3,10.3c0,5.7-4.6,10.3-10.3,10.3s-10.3-4.6-10.3-10.3C44.3,19.1,48.9,14.5,54.6,14.5z M22.4,14.5
			c5.7,0,10.3,4.6,10.3,10.3c0,5.7-4.6,10.3-10.3,10.3S12,30.5,12,24.8C12,19.1,16.7,14.5,22.4,14.5z M22.4,62.3
			c-5.7,0-10.3-4.6-10.3-10.3c0-5.7,4.6-10.3,10.3-10.3s10.3,4.6,10.3,10.3C32.7,57.6,28.1,62.3,22.4,62.3z M30.1,38.4
			c0-4.6,3.8-8.4,8.4-8.4s8.4,3.8,8.4,8.4s-3.8,8.4-8.4,8.4S30.1,43,30.1,38.4z M54.6,62.3c-5.7,0-10.3-4.6-10.3-10.3
			c0-5.7,4.6-10.3,10.3-10.3S65,46.2,65,51.9C65,57.6,60.3,62.3,54.6,62.3z"/>
	</g>
	<g>
		<path class="st0" d="M77.8,40.2V8.5h10.7v31.3h-3.3v-2.6h-3.8v3H77.8z M81.4,12.5v20.8h3.8V12.5H81.4z M89.8,35.3v-3.9h10.3v-4.1
			h4.3v4.1h11.3v3.9h-11.3v9.4h-4.3v-9.4H89.8z M92.7,27.9l-2-3.3c0.8-1.1,1.1-2.2,1.1-3.4V5.4h3.9v6.4h5.2v3.6h-5.2v6.7l5.4-2.5
			v4.1c-2.4,0.9-4.5,1.8-6.2,2.8C94.1,26.9,93.4,27.4,92.7,27.9z M107.5,26.4c-3.2,0.1-4.7-1.4-4.6-4.6V5.4h3.9v7.1
			c1-0.5,2.5-1.4,4.4-2.6c0.9-0.4,1.5-0.8,1.8-1l2.3,3.1c-0.7,0.3-1.7,0.8-3.1,1.5c-2.3,1.2-4.1,2.1-5.4,2.6v4.8
			c-0.1,1.5,0.5,2.2,1.8,2.1h1c1.3,0,2.1-0.6,2.3-1.8c0.1-0.4,0.2-1.3,0.3-2.5c0.1-0.8,0.2-1.3,0.2-1.6c1.1,0.4,2.2,0.9,3.4,1.3
			c-0.1,1.5-0.3,3-0.7,4.3c-0.5,2.5-2.1,3.8-4.8,3.8H107.5z"/>
		<path class="st0" d="M119.6,41.2V8.9h9.7v32h-3.1v-3h-3.3v3.3H119.6z M122.9,12.6v21.7h3.3V12.6H122.9z M131.1,13V9.5h11
			c-0.3-1.3-0.8-2.6-1.3-3.8l4.4-0.5c0.7,1.4,1.1,2.8,1.3,4.3h11.2V13h-7.9l2.8,0.3c-0.8,1.3-1.6,2.6-2.5,3.9h5.9v22.6
			c0.1,2.7-1.3,4.1-4.1,4.1c-0.3,0-0.9,0-1.6,0c-1.2,0.1-2.1,0.2-2.6,0.2c-0.2-1.2-0.5-2.4-0.8-3.6c1.4,0.1,2.7,0.2,3.8,0.2
			c1.3,0,1.9-0.5,1.8-1.6V20.5h-16.9v24h-3.6V17.2h6.1c-1-1.6-1.8-3-2.5-3.9l2.8-0.3H131.1z M137.2,27.1V24h5.1v-2.5h3.4V24h5.1v3.1
			h-5.1v3.1h3.9v9.7h-11.5v-9.7h4.1v-3.1H137.2z M139.6,13c0.5,0.8,1.3,2,2.3,3.8c0.1,0.2,0.2,0.4,0.3,0.5h3.6
			c0.3-0.4,0.8-1.1,1.3-2.1c0.7-1,1.1-1.7,1.3-2.1H139.6z M141.3,33.2v3.9h5.4v-3.9H141.3z"/>
		<path class="st0" d="M162.4,43.7L160,41c1.6-1.1,3.6-2.8,5.7-5.2l2.8,2.1C167.2,39.2,165.2,41.1,162.4,43.7z M162.1,19V6.9h20.2
			V19h-8.4l0.7,2.6h9.8v3h-24.3v-3h10.5c-0.1-0.3-0.3-0.8-0.5-1.5c-0.1-0.4-0.2-0.8-0.3-1.1H162.1z M162.6,35v-8.2h19.2V35h-7.2V40
			c0.1,2.8-1.2,4.3-3.9,4.3c-0.9,0.1-2.2,0.2-3.9,0.2c0-0.1-0.1-0.3-0.2-0.5c0-0.4-0.2-1.4-0.7-3c1.2,0.1,2.2,0.2,3,0.2
			c1.3,0,2-0.5,2-1.5V35H162.6z M165.9,9.5V12h12.6V9.5H165.9z M165.9,14.1v2.3h12.6v-2.3H165.9z M166.5,29.5v2.8H178v-2.8H166.5z
			 M181,42.5c-0.9-0.9-2.4-2.2-4.4-3.9c1.5,1.2,1.4,1-0.5-0.5l2.6-2.3c0.5,0.4,1.4,1.1,2.5,2.1c1.1,0.9,1.9,1.5,2.5,2l-0.3,0.3
			c5.2-2.5,9.8-6.3,13.6-11.3l3.1,3c-4.5,5.4-9.8,9.6-15.9,12.8l-2.3-3L181,42.5z M186.4,18.6c-0.8-1.3-1.6-2.5-2.5-3.4
			c4.4-2.6,8.1-5.7,11.2-9.2l3,2.8C194.7,12.4,190.8,15.7,186.4,18.6z M186.6,30.7c-0.3-0.5-0.9-1.3-1.6-2.3
			c-0.3-0.5-0.6-0.9-0.8-1.1c4.8-2.8,8.9-6.2,12.1-10.2l2.8,2.8C195.3,24.1,191.2,27.7,186.6,30.7z"/>
		<path class="st0" d="M215.8,31.8c-0.5-0.7-1.6-1.8-3.1-3.4c0.3,0.3-0.1-0.1-1.1-1.3v17.4h-3.9V28.9c-1.2,1.4-2.6,2.8-4.3,4.1
			c-0.4-1.5-0.9-3.1-1.3-4.8c3.7-2.7,6.7-6.3,8.9-10.7h-8v-3.9h12.5v3.9c-1.2,2.4-2.5,4.6-3.8,6.6v2.5l2.3-2.1
			c0.8,0.7,1.9,1.8,3.3,3.3c0.5,0.5,0.9,0.9,1.1,1.1V7.1h21v24h-4.1V11h-12.8v20.5h-4.1v-1.8L215.8,31.8z M209.5,13.6
			c-1.3-2.5-2.5-4.6-3.6-6.4l3.4-1.8c1,1.4,2.3,3.5,3.9,6.2L209.5,13.6z M233.2,43.7c-3.2,0-4.8-1.6-4.8-4.9v-6.1
			c-1.5,4-5.5,8-12,12c-0.1-0.1-0.3-0.3-0.5-0.7c-1.1-1.2-1.9-2.1-2.3-2.8c8.9-4.3,13.1-10.5,12.8-18.7c0.1-1.6,0.2-4.5,0.2-8.5h4.1
			c0,2.3-0.1,5.1-0.3,8.4c-0.1,2.4-0.4,4.6-0.8,6.6h2.8v9.2c-0.1,1.3,0.5,1.9,1.8,1.8h1.1c1.3,0.1,2.1-0.5,2.3-1.8
			c0-0.2,0.1-0.5,0.2-1c0.2-1.6,0.3-3,0.3-3.9c0.2,0.1,1.5,0.5,3.8,1.3c-0.1,1.5-0.3,3.3-0.7,5.2c-0.4,2.7-2.3,4-5.6,3.9H233.2z"/>
	</g>
	<g>
		<path class="st0" d="M87.6,68.2c-0.1-0.6-0.3-1.3-0.6-2.2l-1.8-5.4c0-0.1-0.2-0.6-0.4-1.5c-0.1,0.4-0.4,1.4-0.5,1.6L82.6,66
			c-0.3,0.8-0.5,1.7-0.6,2.2h-2.7c-0.1-0.7-0.2-1-0.6-2.2l-2.5-8.2c-0.3-1.1-0.6-2-1-2.9h3.4c0,0.7,0.3,1.8,0.5,2.7l1.3,4.5
			c0.1,0.3,0.2,0.9,0.4,1.8c0-0.2,0.4-1.6,0.5-1.9l1.7-5c0.2-0.7,0.5-1.7,0.6-2.2H86c0.1,0.4,0.4,1.5,0.6,2.2l1.7,5.2
			c0.1,0.2,0.2,0.6,0.3,1.1c0.1,0.3,0.1,0.3,0.1,0.5c0-0.2,0-0.2,0.1-0.5c0.1-0.3,0.2-1.1,0.3-1.2l1.3-4.6c0.3-1,0.5-2,0.5-2.7h3.4
			c-0.3,0.8-0.3,0.9-0.9,2.9L90.8,66c-0.3,1.1-0.5,1.5-0.6,2.2H87.6z"/>
		<path class="st0" d="M107.1,68.2c-0.1-0.6-0.3-1.3-0.6-2.2l-1.8-5.4c0-0.1-0.2-0.6-0.4-1.5c-0.1,0.4-0.4,1.4-0.5,1.6l-1.8,5.4
			c-0.3,0.8-0.5,1.7-0.6,2.2h-2.7c-0.1-0.7-0.2-1-0.6-2.2l-2.5-8.2c-0.3-1.1-0.6-2-1-2.9h3.4c0,0.7,0.3,1.8,0.5,2.7l1.3,4.5
			c0.1,0.3,0.2,0.9,0.4,1.8c0-0.2,0.4-1.6,0.5-1.9l1.7-5c0.2-0.7,0.5-1.7,0.6-2.2h2.5c0.1,0.4,0.4,1.5,0.6,2.2l1.7,5.2
			c0.1,0.2,0.2,0.6,0.3,1.1c0.1,0.3,0.1,0.3,0.1,0.5c0-0.2,0-0.2,0.1-0.5c0.1-0.3,0.2-1.1,0.3-1.2l1.3-4.6c0.3-1,0.5-2,0.5-2.7h3.4
			c-0.3,0.8-0.3,0.9-0.9,2.9l-2.6,8.2c-0.3,1.1-0.5,1.5-0.6,2.2H107.1z"/>
		<path class="st0" d="M126.7,68.2c-0.1-0.6-0.3-1.3-0.6-2.2l-1.8-5.4c0-0.1-0.2-0.6-0.4-1.5c-0.1,0.4-0.4,1.4-0.5,1.6l-1.8,5.4
			c-0.3,0.8-0.5,1.7-0.6,2.2h-2.7c-0.1-0.7-0.2-1-0.6-2.2l-2.5-8.2c-0.3-1.1-0.6-2-1-2.9h3.4c0,0.7,0.3,1.8,0.5,2.7l1.3,4.5
			c0.1,0.3,0.2,0.9,0.4,1.8c0-0.2,0.4-1.6,0.5-1.9l1.7-5c0.2-0.7,0.5-1.7,0.6-2.2h2.5c0.1,0.4,0.4,1.5,0.6,2.2l1.7,5.2
			c0.1,0.2,0.2,0.6,0.3,1.1c0.1,0.3,0.1,0.3,0.1,0.5c0-0.2,0-0.2,0.1-0.5c0.1-0.3,0.2-1.1,0.3-1.2l1.3-4.6c0.3-1,0.5-2,0.5-2.7h3.4
			c-0.3,0.8-0.3,0.9-0.9,2.9l-2.6,8.2c-0.3,1.1-0.5,1.5-0.6,2.2H126.7z"/>
		<path class="st0" d="M135.1,68.2v-3.4h3.4v3.4H135.1z"/>
		<path class="st0" d="M141.3,68.2c0.1-1,0.2-1.7,0.2-3.1V52.9c0-1.2,0-2-0.2-3.1h3.2c-0.1,1-0.2,1.7-0.2,3.1v2.3c0,0.4,0,0.9,0,1.7
			c1.2-1.6,2.6-2.3,4.7-2.3c3.9,0,6.1,2.5,6.1,6.8c0,2.3-0.6,4.1-1.9,5.4c-1.1,1.1-2.6,1.7-4.4,1.7c-2.1,0-3.4-0.7-4.6-2.3
			c0,0.3,0,0.6,0,0.8v1.1H141.3z M148.7,57.1c-1.3,0-2.4,0.4-3.1,1.3c-0.7,0.8-1.1,2-1.1,3.2c0,1.4,0.6,2.9,1.5,3.6
			c0.7,0.5,1.6,0.9,2.4,0.9c2.3,0,3.8-1.8,3.8-4.6C152.2,58.8,150.8,57.1,148.7,57.1z"/>
		<path class="st0" d="M167.8,67c0-0.3,0-0.5,0-0.8c-1.2,1.7-2.4,2.3-4.6,2.3c-1.6,0-2.8-0.4-3.8-1.2c-1.5-1.2-2.4-3.3-2.4-5.8
			c0-4.2,2.4-6.9,6.2-6.9c1.4,0,2.6,0.3,3.5,1.1c0.4,0.3,0.7,0.6,1.2,1.3c0-0.3,0-0.3,0-0.7c0-0.2,0-0.6,0-1V53c0-1.4,0-2.1-0.2-3.1
			h3.2c-0.1,1.1-0.2,1.9-0.2,3.1v12.1c0,1.4,0,2.1,0.2,3.1h-3.1V67z M163.8,66c1.2,0,2.4-0.6,3.1-1.5c0.6-0.8,0.9-1.9,0.9-3.1
			c0-1.1-0.4-2.3-1.1-3.1c-0.7-0.8-1.9-1.3-3-1.3c-2.2,0-3.7,1.7-3.7,4.5C160,64.3,161.5,66,163.8,66z"/>
		<path class="st0" d="M173.9,57.8c-1-2.3-1-2.3-1.3-2.9h3.5c0.1,0.7,0.5,1.7,0.9,2.7l2.8,6.5l2.6-6.5c0.6-1.4,0.7-2,0.9-2.7h3.4
			c-0.1,0.3-0.6,1.2-1.2,2.9l-5.2,12.3c-0.7,1.7-2.1,2.6-4.2,2.6c-0.7,0-1.4-0.1-2.4-0.3l0.5-2.6c0.6,0.3,1.1,0.4,1.6,0.4
			c0.8,0,1.5-0.4,1.8-1.1l0.8-1.8L173.9,57.8z"/>
		<path class="st0" d="M190.8,64c0.4,1.6,1.2,2.2,3,2.2c1.7,0,2.8-0.7,2.8-1.7c0-0.5-0.2-0.9-0.6-1.1c-0.4-0.3-0.6-0.3-2.4-0.7
			c-1.8-0.4-2.5-0.6-3.3-1c-1.3-0.6-2-1.7-2-3.1c0-0.8,0.3-1.6,0.7-2.1c0.9-1.2,2.5-1.8,4.6-1.8c1.9,0,3.4,0.5,4.3,1.3
			c0.6,0.6,0.9,1.1,1.2,2.3l-3,0.4c-0.3-1.3-1-1.8-2.5-1.8c-1.4,0-2.4,0.6-2.4,1.6c0,0.4,0.3,0.8,0.7,1.1c0.5,0.3,1,0.4,2.3,0.7
			c2.3,0.5,3.3,0.8,4,1.4c0.9,0.6,1.3,1.6,1.3,2.9c0,0.9-0.4,2-1.1,2.6c-1.1,1-2.7,1.5-4.8,1.5c-2.4,0-4.1-0.7-5.1-2
			c-0.4-0.6-0.6-1-0.9-2L190.8,64z"/>
		<path class="st0" d="M201.9,68.2v-3.4h3.4v3.4H201.9z"/>
		<path class="st0" d="M208.1,68.2c0.1-1,0.2-1.7,0.2-3v-7.2c0-1.4,0-2.1-0.2-3h3.1v1.2c0,0.1,0,0.5,0,0.9c0.7-1.4,2.4-2.3,4.3-2.3
			c1.2,0,2.3,0.3,3,1c0.4,0.4,0.6,0.7,0.9,1.4c0.8-1,1.2-1.4,1.9-1.8c0.8-0.4,1.5-0.6,2.6-0.6c1.5,0,2.7,0.5,3.4,1.3
			c0.8,0.8,1.1,1.9,1.1,3.5v5.7c0,1.3,0,2,0.2,3h-3.4c0.1-0.9,0.2-1.6,0.2-3V60c0-2-0.7-2.9-2.3-2.9c-0.8,0-1.3,0.2-1.9,0.7
			c-0.8,0.7-1.2,1.4-1.4,2.9v4.6c0,1.3,0,2,0.2,3h-3.3c0.1-1,0.2-1.7,0.2-3V60c0-1.9-0.7-2.9-2.2-2.9c-1,0-1.7,0.4-2.4,1.2
			c-0.5,0.7-0.7,1.2-1,2.3v4.6c0,1.2,0,1.9,0.2,3H208.1z"/>
		<path class="st0" d="M233.7,62.3c0.1,1.3,0.3,1.9,0.9,2.6c0.7,0.8,1.7,1.3,2.9,1.3c1.1,0,2.1-0.4,2.8-1.1c0.3-0.3,0.4-0.6,0.7-1.2
			l2.7,0.9c-0.5,1.1-0.8,1.5-1.4,2.1c-1.2,1.2-2.8,1.8-4.7,1.8c-4.1,0-6.6-2.7-6.6-7c0-4.3,2.6-7,6.5-7c2.7,0,4.8,1.3,5.7,3.6
			c0.4,1.1,0.6,1.9,0.7,3.5c0,0,0,0.1,0,0.6H233.7z M240.7,60c-0.2-1-0.4-1.6-1-2.2c-0.6-0.6-1.4-0.9-2.5-0.9
			c-1.8,0-3.1,1.2-3.4,3.1H240.7z"/>
	</g>
</g>
<g>
</g>
<g>
</g>
<g>
</g>
<g>
</g>
<g>
</g>
</svg>
